<mxfile host="www.draw.io" modified="2019-12-13T10:10:23.775Z" agent="Mozilla/5.0 (Windows NT 10.0; Win64; x64) AppleWebKit/537.36 (KHTML, like Gecko) Chrome/78.0.3904.108 Safari/537.36" etag="pEFpUEmTpVM3YsThGZwC" version="12.4.1" type="github" pages="1">
  <diagram id="0wpR_Zg7rgJ2AMjmzWhl" name="第 1 页">
    <mxGraphModel dx="1422" dy="762" grid="1" gridSize="10" guides="1" tooltips="1" connect="1" arrows="1" fold="1" page="1" pageScale="1" pageWidth="827" pageHeight="1169" math="0" shadow="0">
      <root>
        <mxCell id="0"/>
        <mxCell id="1" parent="0"/>
        <mxCell id="AABdKVAQ4M9HiVD30GPb-4" style="edgeStyle=orthogonalEdgeStyle;rounded=0;orthogonalLoop=1;jettySize=auto;html=1;entryX=0.5;entryY=0;entryDx=0;entryDy=0;" edge="1" parent="1" source="AABdKVAQ4M9HiVD30GPb-1" target="AABdKVAQ4M9HiVD30GPb-3">
          <mxGeometry relative="1" as="geometry"/>
        </mxCell>
        <mxCell id="AABdKVAQ4M9HiVD30GPb-1" value="Parent线程组&lt;br&gt;EventLoopGroup&lt;br&gt;(CPU核 * 2)" style="rounded=0;whiteSpace=wrap;html=1;" vertex="1" parent="1">
          <mxGeometry x="580" y="70" width="120" height="60" as="geometry"/>
        </mxCell>
        <mxCell id="AABdKVAQ4M9HiVD30GPb-2" value="Child线程组&lt;br&gt;EventLoopGroup&lt;br&gt;(CPU核 * 2)" style="rounded=0;whiteSpace=wrap;html=1;" vertex="1" parent="1">
          <mxGeometry x="670" y="290" width="120" height="60" as="geometry"/>
        </mxCell>
        <mxCell id="AABdKVAQ4M9HiVD30GPb-6" style="edgeStyle=orthogonalEdgeStyle;rounded=0;orthogonalLoop=1;jettySize=auto;html=1;entryX=1;entryY=0.5;entryDx=0;entryDy=0;" edge="1" parent="1" source="AABdKVAQ4M9HiVD30GPb-3" target="AABdKVAQ4M9HiVD30GPb-5">
          <mxGeometry relative="1" as="geometry"/>
        </mxCell>
        <mxCell id="AABdKVAQ4M9HiVD30GPb-7" value="无限循环select" style="text;html=1;align=center;verticalAlign=middle;resizable=0;points=[];;labelBackgroundColor=#ffffff;" vertex="1" connectable="0" parent="AABdKVAQ4M9HiVD30GPb-6">
          <mxGeometry x="0.2" y="-1" relative="1" as="geometry">
            <mxPoint x="16" y="1" as="offset"/>
          </mxGeometry>
        </mxCell>
        <mxCell id="AABdKVAQ4M9HiVD30GPb-3" value="线程&lt;br&gt;NioEventLoop" style="rounded=0;whiteSpace=wrap;html=1;" vertex="1" parent="1">
          <mxGeometry x="585" y="170" width="110" height="30" as="geometry"/>
        </mxCell>
        <mxCell id="AABdKVAQ4M9HiVD30GPb-9" style="edgeStyle=orthogonalEdgeStyle;rounded=0;orthogonalLoop=1;jettySize=auto;html=1;entryX=1;entryY=0.5;entryDx=0;entryDy=0;" edge="1" parent="1" source="AABdKVAQ4M9HiVD30GPb-5" target="AABdKVAQ4M9HiVD30GPb-8">
          <mxGeometry relative="1" as="geometry"/>
        </mxCell>
        <mxCell id="AABdKVAQ4M9HiVD30GPb-10" value="关注&lt;br&gt;OP_ACCEPT" style="text;html=1;align=center;verticalAlign=middle;resizable=0;points=[];;labelBackgroundColor=#ffffff;" vertex="1" connectable="0" parent="AABdKVAQ4M9HiVD30GPb-9">
          <mxGeometry x="0.1833" y="-4" relative="1" as="geometry">
            <mxPoint x="11" y="4" as="offset"/>
          </mxGeometry>
        </mxCell>
        <mxCell id="AABdKVAQ4M9HiVD30GPb-5" value="Selector&lt;br&gt;多路复用轮询组件" style="rounded=0;whiteSpace=wrap;html=1;" vertex="1" parent="1">
          <mxGeometry x="330" y="155" width="120" height="60" as="geometry"/>
        </mxCell>
        <mxCell id="AABdKVAQ4M9HiVD30GPb-12" style="edgeStyle=orthogonalEdgeStyle;rounded=0;orthogonalLoop=1;jettySize=auto;html=1;entryX=0.5;entryY=0;entryDx=0;entryDy=0;" edge="1" parent="1" source="AABdKVAQ4M9HiVD30GPb-8" target="AABdKVAQ4M9HiVD30GPb-11">
          <mxGeometry relative="1" as="geometry">
            <Array as="points">
              <mxPoint x="135" y="20"/>
              <mxPoint x="60" y="20"/>
            </Array>
          </mxGeometry>
        </mxCell>
        <mxCell id="AABdKVAQ4M9HiVD30GPb-13" value="监听" style="text;html=1;align=center;verticalAlign=middle;resizable=0;points=[];;labelBackgroundColor=#ffffff;" vertex="1" connectable="0" parent="AABdKVAQ4M9HiVD30GPb-12">
          <mxGeometry x="-0.3011" y="-2" relative="1" as="geometry">
            <mxPoint as="offset"/>
          </mxGeometry>
        </mxCell>
        <mxCell id="AABdKVAQ4M9HiVD30GPb-14" style="edgeStyle=orthogonalEdgeStyle;rounded=0;orthogonalLoop=1;jettySize=auto;html=1;exitX=0.75;exitY=0;exitDx=0;exitDy=0;entryX=0.5;entryY=0;entryDx=0;entryDy=0;" edge="1" parent="1" source="AABdKVAQ4M9HiVD30GPb-8" target="AABdKVAQ4M9HiVD30GPb-5">
          <mxGeometry relative="1" as="geometry"/>
        </mxCell>
        <mxCell id="AABdKVAQ4M9HiVD30GPb-15" value="注册上去" style="text;html=1;align=center;verticalAlign=middle;resizable=0;points=[];;labelBackgroundColor=#ffffff;" vertex="1" connectable="0" parent="AABdKVAQ4M9HiVD30GPb-14">
          <mxGeometry x="-0.1815" y="3" relative="1" as="geometry">
            <mxPoint x="21" as="offset"/>
          </mxGeometry>
        </mxCell>
        <mxCell id="AABdKVAQ4M9HiVD30GPb-8" value="NioServerSocketChannel" style="rounded=0;whiteSpace=wrap;html=1;" vertex="1" parent="1">
          <mxGeometry x="60" y="152.5" width="150" height="65" as="geometry"/>
        </mxCell>
        <mxCell id="AABdKVAQ4M9HiVD30GPb-11" value="网络端口" style="rounded=0;whiteSpace=wrap;html=1;" vertex="1" parent="1">
          <mxGeometry y="40" width="120" height="60" as="geometry"/>
        </mxCell>
      </root>
    </mxGraphModel>
  </diagram>
</mxfile>
